:SAMPLES-PER-SECOND 30
:FULLY-SPECIFIED
:DEGREES
498
root  -84.172 30.3836 -20.9692 3.22303 -2.59644 -10.3635
RightUpLeg  -21.1172 1.03091 10.8416
RightLeg  48.3611 -0.780037 -0.812649
RightFoot  -20.2887 0.00949747 0.430644
RightToes  -28.349 -0.132719 -0.240329
Spine  7.38896 -1.94681 3.53064
Spine1  14.2363 -3.6193 4.62473
HEad  35.4012 11.5022 0.671759
LeftShoulder1  0 -2.42657e-020 -4.95415e-022
LeftArm  -1.62845 12.1821 -88.6916
LeftForeArm  37.4214 -43.1909 -9.52819
LeftHand  -0.74555 -7.38002 11.162
RightShoulder  0 2.42657e-020 1.07489e-018
RightArm  -4.90476 -8.26962 80.3184
RightForeArm  166.853 79.4205 108.217
RightHand  -8.47168 18.7389 -47.9923
LeftUpLeg  -27.8554 1.42412 4.72833
LeftLeg  90.9319 -0.163843 -3.54992
LeftFoot  -2.58542 0.00844463 0.374211
LeftToes  -19.8179 8.72033e-007 1.17809e-007
499
root  -83.9947 30.8953 -19.1127 2.78162 0.295215 -8.27843
RightUpLeg  -14.7347 -1.83239 8.4447
RightLeg  43.0068 -1.26251 -1.06232
RightFoot  -20.8321 0.0477863 0.637527
RightToes  -31.1683 -0.152048 -0.260003
Spine  7.01788 -1.27565 2.63836
Spine1  13.4401 -2.22323 3.43679
HEad  37.2156 5.73756 2.83585
LeftShoulder1  0 -2.42657e-020 -4.95415e-022
LeftArm  -1.1124 12.727 -88.3897
LeftForeArm  35.5798 -44.3505 -9.93022
LeftHand  -0.689202 -6.96247 10.9335
RightShoulder  0 2.42657e-020 1.07489e-018
RightArm  -7.48135 -4.41224 84.792
RightForeArm  93.6904 69.7518 28.5109
RightHand  -8.61626 18.719 -48.7706
LeftUpLeg  -33.2116 0.359075 3.61279
LeftLeg  86.257 0.269097 2.01123
LeftFoot  -7.8317 -0.00731341 -0.10685
LeftToes  -10.0277 8.72033e-007 1.17809e-007
500
root  -83.6959 31.7268 -17.0798 2.48525 3.24767 -5.60859
RightUpLeg  -6.26683 -3.14916 5.64229
RightLeg  33.8632 -3.11891 -1.82502
RightFoot  -18.1871 0.126327 1.16684
RightToes  -31.6026 -0.155111 -0.262949
Spine  6.66972 -0.325097 1.27085
Spine1  12.7137 0.0496045 0.928033
HEad  40.2737 -0.947888 6.36962
LeftShoulder1  0 -2.42657e-020 -4.95415e-022
LeftArm  -0.406492 13.53 -86.9224
LeftForeArm  35.0109 -46.2282 -10.615
LeftHand  -0.646168 -6.63053 10.7612
RightShoulder  0 2.42657e-020 1.07489e-018
RightArm  -13.8297 2.79893 89.7274
RightForeArm  76.3273 40.9368 8.70293
RightHand  -7.97544 21.4141 -40.1175
LeftUpLeg  -35.3513 -0.877388 1.64784
LeftLeg  74.9275 0.72049 2.10055
LeftFoot  -9.01809 -0.0125846 -0.15959
LeftToes  -6.72695 8.72033e-007 1.17809e-007
501
root  -83.3552 32.3951 -15.111 2.32708 3.58108 -3.05045
RightUpLeg  -0.586591 0.994741 3.99578
RightLeg  29.6954 -7.4154 -3.61026
RightFoot  -13.5573 0.188014 1.95929
RightToes  -33.2604 -0.167005 -0.273976
Spine  7.12548 2.55961 -0.0742241
Spine1  12.9227 7.21637 -3.05813
HEad  43.3709 -7.6199 9.74937
LeftShoulder1  0 -2.42657e-020 -4.95415e-022
LeftArm  -0.0853595 13.026 -85.9203
LeftForeArm  34.4993 -49.2917 -11.8439
LeftHand  -0.62603 -6.52939 10.5829
RightShoulder  0 2.42657e-020 1.07489e-018
RightArm  -23.4256 8.08005 90.6485
RightForeArm  70.4373 26.8883 5.05074
RightHand  -4.72938 21.8222 -23.8188
LeftUpLeg  -35.0254 1.23357 -0.601439
LeftLeg  59.8901 0.247399 0.35918
LeftFoot  -9.12322 0.0221152 0.277179
LeftToes  -6.97227 8.72033e-007 1.17809e-007
502
root  -83.0754 32.9228 -13.0058 2.61993 4.03685 -1.68543
RightUpLeg  3.11258 2.78684 3.18869
RightLeg  28.3217 -9.4353 -4.30395
RightFoot  -7.09219 0.0615912 1.37154
RightToes  -40.7045 -0.224136 -0.319067
Spine  7.30409 4.66255 -0.819973
Spine1  12.6349 12.3814 -5.08389
HEad  44.8693 -13.2129 12.1422
LeftShoulder1  0 -2.42657e-020 -4.95415e-022
LeftArm  0.802062 12.8921 -84.9337
LeftForeArm  34.2427 -52.3578 -13.2446
LeftHand  -0.586802 -6.21955 10.4107
RightShoulder  0 2.42657e-020 1.07489e-018
RightArm  -43.4953 13.9325 89.2064
RightForeArm  69.0919 14.311 2.50851
RightHand  0.209272 18.0569 1.68761
LeftUpLeg  -33.3657 4.18396 -2.10659
LeftLeg  43.2638 0.57764 0.471588
LeftFoot  -8.99317 0.0130075 0.165393
LeftToes  -9.08165 8.72033e-007 1.17809e-007
503
root  -82.6636 33.1691 -10.7702 3.33039 6.95508 -1.20266
RightUpLeg  5.42449 1.03046 2.64596
RightLeg  29.1052 -9.35533 -4.42294
RightFoot  -1.16118 7.79013e-005 0.385468
RightToes  -45.6468 -0.26509 -0.344748
Spine  6.70946 4.73198 -1.0541
Spine1  11.4284 12.4941 -5.15709
HEad  45.6541 -16.9715 13.2551
LeftShoulder1  0 -2.42657e-020 -4.95415e-022
LeftArm  1.23959 14.269 -83.891
LeftForeArm  35.7008 -55.3629 -14.8294
LeftHand  -0.608182 -6.30111 10.657
RightShoulder  0 2.42657e-020 1.07489e-018
RightArm  -61.3111 14.6418 84.8229
RightForeArm  67.5435 4.19497 0.685023
RightHand  0.904429 15.1041 7.1871
LeftUpLeg  -32.0103 3.66509 -3.17254
LeftLeg  30.3344 0.998718 0.497467
LeftFoot  -7.46919 0.000281349 0.00430123
LeftToes  -9.41592 8.72033e-007 1.17809e-007
504
root  -82.1511 33.1057 -8.61063 4.13574 11.6107 -0.52084
RightUpLeg  5.0715 -2.48483 1.76573
RightLeg  34.8268 -8.11733 -4.88848
RightFoot  3.21987 0.0190726 -0.300973
RightToes  -45.7585 -0.26604 -0.345287
Spine  5.66824 3.44651 -1.23941
Spine1  9.63717 9.37707 -4.89174
HEad  46.5416 -19.2613 13.8133
LeftShoulder1  0 -2.42657e-020 -4.95415e-022
LeftArm  0.911599 16.4887 -82.6973
LeftForeArm  37.2982 -57.8035 -16.3162
LeftHand  -0.597746 -6.21213 10.6236
RightShoulder  0 2.42657e-020 1.07489e-018
RightArm  -66.1537 10.1201 83.0145
RightForeArm  66.043 3.65758 0.594153
RightHand  0.686226 12.5227 6.62174
LeftUpLeg  -31.5745 0.655682 -4.71513
LeftLeg  25.9348 -1.73342 -0.712266
LeftFoot  -5.65958 0.0139988 0.283198
LeftToes  -5.30459 8.72033e-007 1.17809e-007
505
root  -81.5852 32.6967 -6.50668 3.50369 15.4239 1.06283
RightUpLeg  3.16372 -3.73248 0.414778
RightLeg  46.1738 -6.43136 -5.89088
RightFoot  7.20498 0.0763011 -0.834256
RightToes  -38.9172 -0.209892 -0.308924
Spine  5.58975 2.20215 -1.78077
Spine1  9.62517 6.42662 -5.46676
HEad  45.788 -20.6052 14.5399
LeftShoulder1  0 -2.42657e-020 -4.95415e-022
LeftArm  0.761336 16.6718 -80.9298
LeftForeArm  36.7591 -59.7816 -17.6895
LeftHand  -0.543635 -5.8909 10.1779
RightShoulder  0 2.42657e-020 1.07489e-018
RightArm  -65.7031 6.83195 83.409
RightForeArm  67.2575 6.3927 1.07422
RightHand  0.021807 15.6457 0.528948
LeftUpLeg  -29.9996 -5.46585 -6.11414
LeftLeg  30.0939 -2.13298 -1.06274
LeftFoot  -2.99895 0.00636674 0.243212
LeftToes  -4.8318 8.72033e-007 1.17809e-007
506
root  -81.1177 32.0139 -4.49551 1.71459 18.6743 2.11285
RightUpLeg  0.280092 -4.14001 -0.448997
RightLeg  59.2407 -3.09482 -4.58294
RightFoot  11.4486 0.120825 -0.827688
RightToes  -35.8528 -0.18623 -0.290517
Spine  6.18001 0.969072 -2.10009
Spine1  10.9474 3.64712 -5.77268
HEad  44.2179 -20.7709 14.6483
LeftShoulder1  0 -2.42657e-020 -4.95415e-022
LeftArm  0.00108934 15.1483 -79.5943
LeftForeArm  35.9798 -60.4627 -18.2038
LeftHand  -0.508511 -5.67968 9.86605
RightShoulder  0 2.42657e-020 1.07489e-018
RightArm  -58.9128 4.15378 84.0269
RightForeArm  61.8272 11.4699 2.00077
RightHand  -0.591414 19.2667 -3.11428
LeftUpLeg  -29.4119 -10.5068 -7.24892
LeftLeg  38.5825 -0.227887 -0.164062
LeftFoot  -2.92052 0.00343555 0.134761
LeftToes  -7.78328 8.72033e-007 1.17809e-007
507
root  -80.6565 31.3767 -2.44193 -0.0989827 19.3494 3.26148
RightUpLeg  -3.59742 -3.1436 -2.05206
RightLeg  70.8746 -0.831974 -2.15694
RightFoot  6.11489 0.0226327 -0.0461731
RightToes  -34.9266 -0.179275 -0.284707
Spine  6.84802 0.352248 -2.57565
Spine1  12.414 2.14299 -6.33681
HEad  42.5805 -19.9856 14.6956
LeftShoulder1  0 -2.42657e-020 -4.95415e-022
LeftArm  -1.24185 13.1131 -78.5264
LeftForeArm  36.1154 -59.4624 -17.4569
LeftHand  -0.558806 -5.78578 10.6669
RightShoulder  0 2.42657e-020 1.07489e-018
RightArm  -48.1419 -0.401865 84.1228
RightForeArm  43.0799 20.132 3.68666
RightHand  -0.686791 21.6503 -3.22151
LeftUpLeg  -27.4198 -9.13799 -9.27635
LeftLeg  45.7698 -1.14775 -1.04292
LeftFoot  -8.58049 0.0227479 0.303218
LeftToes  -1.64077 8.72033e-007 1.17809e-007
